<?xml version="1.0" encoding="utf-8"?>
<!-- Generator: Adobe Illustrator 21.0.0, SVG Export Plug-In . SVG Version: 6.00 Build 0)  -->
<svg version="1.1" id="Camada_1" xmlns="http://www.w3.org/2000/svg" xmlns:xlink="http://www.w3.org/1999/xlink" x="0px" y="0px"
	 viewBox="0 0 1460 162" style="enable-background:new 0 0 1460 162;" xml:space="preserve">
<style type="text/css">
	.st0{display:none;fill:#484848;}
	.st1{display:none;fill:#FF8400;}
	.st2{fill:#484848;}
	.st3{font-family:'Lato-Black';}
	.st4{font-size:216.7551px;}
	.st5{letter-spacing:6;}
	.st6{fill:#FF8400;}
</style>
<path class="st0" d="M68,0H8.7C3.3,0,0,3.3,0,8.7v144.5c0,5.4,3.3,8.7,8.7,8.7H68c13.4,0,24.1-3.8,31.7-11.2
	c7.7-7.5,11.5-18.1,11.5-31.6V42.8c0-13.4-3.9-24.1-11.5-31.6C92.1,3.8,81.4,0,68,0z M73.6,44.3v73.3c0,4.1-0.8,7-2.2,8.4
	c-1.4,1.4-4.3,2.2-8.4,2.2H37.7V33.7h25.2c4.1,0,7,0.8,8.4,2.2C72.8,37.3,73.6,40.3,73.6,44.3z"/>
<path class="st0" d="M233.9,0h-78.6c-5.4,0-8.7,3.3-8.7,8.7v144.5c0,5.4,3.3,8.7,8.7,8.7h78.6c5.2,0,8.4-3.3,8.4-8.7v-16.4
	c0-5.4-3.2-8.7-8.4-8.7h-49.5V96.7h40.4c5.4,0,8.7-3.3,8.7-8.7V71.6c0-5.4-3.3-8.7-8.7-8.7h-40.4V33.6h49.5c5.2,0,8.4-3.3,8.4-8.7
	V8.6C242.3,3.3,239.1,0,233.9,0z"/>
<path class="st0" d="M380.3,0h-22.6c-5,0-8.4,2.9-9.3,7.9L326.1,112L303.9,8c-0.9-5.1-4.3-8-9.3-8H272c-3.5,0-6,1-7.5,3
	c-0.9,1.3-1.9,3.6-0.9,7l37.2,143.9c0.9,5.1,4.4,8,9.5,8h31.5c4.7,0,8.1-2.8,9.3-7.8L388.5,9.9c0.7-2.9,0.2-5.3-1.2-7.1
	C385.8,0.9,383.4,0,380.3,0z"/>
<path class="st1" d="M501.7,70.8c-10.9-4.4-23.4-7.3-37.4-8.4C447.9,61,447.9,55,447.9,53v-4.5c0-8.2,1.6-11.1,2.5-12.1
	c0.9-0.9,3.5-2.6,10.7-2.6h9.4c7.1,0,9.8,1.5,10.8,2.4c0.9,0.9,2.5,3.3,2.5,10.1v1.4c0,5.4,3.3,8.7,8.7,8.7h20.4
	c5.4,0,8.7-3.3,8.7-8.7v-4.5c0-13.4-4-24.1-11.6-31.7C502.1,4,491.3,0.2,477.7,0.2h-24c-13.4,0-24.2,3.9-31.8,11.3
	c-7.7,7.6-11.6,18.2-11.6,31.7v8.4c0,10.6,2.1,19.4,6.1,26.3c4.2,7,9.5,11.8,15.9,14.3c5.8,2.2,12,4.1,18.7,5.5
	c6.7,1.4,12.9,2.4,18.6,2.8c5,0.4,9.2,1.7,12.4,3.9c2.7,1.8,4.1,4.3,4.1,7.7v2.9c0,5.4-0.9,9.3-2.6,10.9c-1.2,1.2-4.1,2.6-10.6,2.6
	h-11.3c-7.1,0-9.8-1.5-10.8-2.4c-1.6-1.5-2.5-5-2.5-9.9v-1.9c0-5.4-3.3-8.7-8.7-8.7h-20.4c-5.4,0-8.7,3.3-8.7,8.7v4.8
	c0,13.4,4,24.1,11.6,31.7c7.7,7.6,18.4,11.3,31.8,11.3h26.2c13.4,0,24.1-3.9,31.8-11.3c7.7-7.6,11.6-18.2,11.6-31.7v-8.1
	c0-10.2-2.1-18.8-6.1-25.5C513.3,78.3,508.1,73.4,501.7,70.8z"/>
<path class="st1" d="M660.5,0h-20.2c-5.4,0-8.7,3.3-8.7,8.7v109c0,4.1-0.8,7-2.2,8.4c-1.4,1.4-4.3,2.2-8.4,2.2h-16.5
	c-3.9,0-6.7-0.8-8.1-2.2c-1.4-1.4-2.2-4.3-2.2-8.4V8.7c0-5.4-3.3-8.7-8.7-8.7h-20.4c-5.4,0-8.7,3.3-8.7,8.7v110.4
	c0,13.6,3.9,24.3,11.4,31.7c7.6,7.4,18.2,11.2,31.8,11.2h26.4c13.4,0,24.1-3.8,31.7-11.2c7.7-7.5,11.5-18.1,11.5-31.6V8.4
	C669.4,3.3,666,0,660.5,0z"/>
<path class="st1" d="M773.2,0h-58.7c-5.4,0-8.7,3.3-8.7,8.7v144.5c0,5.4,3.3,8.7,8.7,8.7h20.4c5.4,0,8.7-3.3,8.7-8.7v-44.5h29.6
	c13.4,0,24.1-3.8,31.6-11.2c7.6-7.5,11.4-18.1,11.4-31.6V42.8c0-13.4-3.9-24-11.4-31.6C797.3,3.9,786.6,0,773.2,0z M778.5,44.3v20.2
	c0,4-0.8,6.8-2.2,8.2c-1.3,1.4-4.2,2.2-8.2,2.2h-24.6V33.8h24.6c4.1,0,6.9,0.8,8.2,2.2C777.7,37.2,778.5,40.2,778.5,44.3z"/>
<path class="st1" d="M934.2,0h-78.6c-5.4,0-8.7,3.3-8.7,8.7v144.5c0,5.4,3.3,8.7,8.7,8.7h78.6c5.2,0,8.4-3.3,8.4-8.7v-16.4
	c0-5.4-3.2-8.7-8.4-8.7h-49.5V96.7h40.3c5.4,0,8.7-3.3,8.7-8.7V71.6c0-5.4-3.3-8.7-8.7-8.7h-40.3V33.6h49.5c5.2,0,8.4-3.3,8.4-8.7
	V8.6C942.6,3.3,939.4,0,934.2,0z"/>
<path class="st1" d="M1064.7,99.8c13.6-6.9,20.5-19.7,20.5-38V43.1c0-13.4-4-24.1-11.6-31.7c-7.8-7.6-18.4-11.3-31.8-11.3h-57.2
	c-5.4,0-8.7,3.3-8.7,8.7v144.5c0,5.4,3.3,8.7,8.7,8.7h20.4c5.4,0,8.7-3.3,8.7-8.7v-48.4h13l23,49.6c1.1,2.9,2.8,5,4.9,6
	c1.8,0.9,4.3,1.3,7.8,1.3h19.5c3.3,0,5.8-1,7.1-3c1.4-2,1.5-4.5,0.2-7.9L1064.7,99.8z M1047.5,44.3V63c0,3.7-0.8,6.3-2.4,7.8
	c-1.7,1.5-4.8,2.4-8.9,2.4h-22.6V33.7h22.6c4.2,0,7.2,0.8,8.9,2.4C1046.6,37.6,1047.5,40.4,1047.5,44.3z"/>
<path class="st1" d="M1151.3,0h-20.4c-5.4,0-8.7,3.3-8.7,8.7v144.5c0,5.4,3.3,8.7,8.7,8.7h20.4c5.4,0,8.7-3.3,8.7-8.7V8.7
	C1159.9,3.3,1156.6,0,1151.3,0z"/>
<path class="st1" d="M1266.6,0h-26.9c-13.6,0-24.3,3.8-31.8,11.2c-7.6,7.4-11.4,18.1-11.4,31.7v76.3c0,13.6,3.9,24.3,11.4,31.7
	c7.6,7.4,18.2,11.2,31.8,11.2h26.9c13.6,0,24.3-3.8,31.8-11.2c7.5-7.4,11.4-18.1,11.4-31.7V42.8c0-13.6-3.9-24.3-11.4-31.7
	C1290.9,3.8,1280.2,0,1266.6,0z M1272.2,44.3v73.3c0,4.1-0.8,7-2.2,8.4c-1.4,1.4-4.3,2.2-8.4,2.2h-17.1c-4.1,0-6.9-0.8-8.2-2.2
	c-1.4-1.4-2.1-4.3-2.1-8.4V44.3c0-4.1,0.8-7,2.1-8.4c1.3-1.4,4.2-2.2,8.2-2.2h17.1c4.1,0,7,0.8,8.4,2.2
	C1271.4,37.3,1272.2,40.3,1272.2,44.3z"/>
<path class="st1" d="M1458.5,150.9l-24.5-51.1c13.6-6.9,20.5-19.7,20.5-38V43.1c0-13.4-4-24.1-11.6-31.7
	c-7.8-7.6-18.4-11.3-31.8-11.3h-57.2c-5.4,0-8.7,3.3-8.7,8.7v144.5c0,5.4,3.3,8.7,8.7,8.7h20.4c5.4,0,8.7-3.3,8.7-8.7v-48.4h13
	l22.9,49.6c1.1,2.9,2.8,5,4.9,6c1.8,0.9,4.3,1.3,7.8,1.3h19.5c3.3,0,5.8-1,7.1-3C1459.7,156.9,1459.8,154.3,1458.5,150.9z
	 M1416.9,44.3V63c0,3.7-0.8,6.3-2.4,7.8c-1.7,1.5-4.8,2.4-8.9,2.4h-22.6V33.7h22.6c4.2,0,7.2,0.8,8.9,2.4
	C1416,37.6,1416.9,40.4,1416.9,44.3z"/>
<text transform="matrix(1 0 0 1 0 160.7783)"><tspan x="0" y="0" class="st2 st3 st4 st5">Alisson</tspan><tspan x="771" y="0" class="st6 st3 st4 st5">Youssf</tspan></text>
</svg>
